{"title":"Paranormal.Activity.2.2010. Proper CAM.V3 XviD READ NFO-LKRG","uid":5912572,"size":629911461,"categoryP":"video","categoryS":"movies","magnet":"?xt=urn:btih:c5d6ecfd6e1dd2120bfc40db703326a9c7fa3613&amp;dn=Paranormal.Activity.2.2010.+Proper+CAM.V3+XviD+READ+NFO-LKRG&amp;tr=udp%3A%2F%2Ftracker.openbittorrent.com%3A80&amp;tr=udp%3A%2F%2Fopen.demonii.com%3A1337&amp;tr=udp%3A%2F%2Ftracker.coppersurfer.tk%3A6969&amp;tr=udp%3A%2F%2Fexodus.desync.com%3A6969","seeders":0,"leechers":0,"uploader":"SAFCukO09","files":5,"time":1288100613,"description":"Video: ID : 0\n\nFormat : MPEG-4 Visual\n\nFormat profile : Simple@L3\n\nFormat settings, BVOP : No\n\nFormat settings, QPel : No\n\nFormat settings, GMC : No warppoints\n\nFormat settings, Matrix : Default (H.263)\n\nCodec ID : XVID\n\nCodec ID/Hint : XviD\n\nDuration : 1h 19mn\n\nBit rate : 943 Kbps\n\nWidth : 720 pixels\n\nHeight : 374 pixels\n\nDisplay aspect ratio : 1.925\n\nFrame rate : 25.000 fps\n\nColor space : YUV\n\nChroma subsampling : 4:2:0\n\nBit depth : 8 bits\n\nScan type : Progressive\n\nBits/(Pixel*Frame) : 0.140\n\nStream size : 535 MiB (88%)\n\nWriting library : XviD 1.2.1 (UTC 2008-12-04)\n\n\n\nAudio: ID : 1\n\nFormat : MPEG Audio\n\nFormat version : Version 1\n\nFormat profile : Layer 3\n\nMode : Joint stereo\n\nMode extension : MS Stereo\n\nCodec ID : 55\n\nCodec ID/Hint : MP3\n\nDuration : 1h 26mn\n\nBit rate mode : Constant\n\nBit rate : 128 Kbps\n\nChannel(s) : 2 channels\n\nSampling rate : 48.0 KHz\n\nVideo delay : 500ms\n\nStream size : 72.7 MiB (12%)\n\nAlignment : Split accross interleaves\n\nInterleave, duration : 500 ms (12.50 video frames)\n\nInterleave, preload duration : 500 ms\n\n\n\nVideo:Relizlab\n\n\n\nAudio:Own/XBoxMySocks thanks man\n\n\n\nOkay here we go with V3 lol this one is proper no cropping issues great video just lowered colors a bit and fixed some noise\n\n\n\nAudio again is our own and many thanks to XBoxMySocks for the 5 minutes of missing audio we didn't have, no more versions from LKRG we are paranormal activitied out (:\n\n\n\nEnjoy","torrent":{"xt":"urn:btih:c5d6ecfd6e1dd2120bfc40db703326a9c7fa3613","amp;dn":"Paranormal.Activity.2.2010.+Proper+CAM.V3+XviD+READ+NFO-LKRG","amp;tr":["udp%3A%2F%2Ftracker.openbittorrent.com%3A80","udp%3A%2F%2Fopen.demonii.com%3A1337","udp%3A%2F%2Ftracker.coppersurfer.tk%3A6969","udp%3A%2F%2Fexodus.desync.com%3A6969"],"infoHash":"c5d6ecfd6e1dd2120bfc40db703326a9c7fa3613","infoHashBuffer":{"type":"Buffer","data":[197,214,236,253,110,29,210,18,11,252,64,219,112,51,38,169,199,250,54,19]},"announce":[],"urlList":[]}}